<svg width="22" height="22" viewBox="0 0 22 22" fill="none"
    xmlns="http://www.w3.org/2000/svg">
    <path d="M0 11C0 4.92487 4.92487 0 11 0C17.0751 0 22 4.92487 22 11C22 17.0751 17.0751 22 11 22C4.92487 22 0 17.0751 0 11Z" fill="#28356A"/>
    <path d="M16.0288 7.30774L16.0571 7.27831L16.0271 7.25063L15.7238 6.97061L15.695 6.94402L15.6678 6.97228L9.2145 13.686L6.34736 10.366L6.32164 10.3362L6.29144 10.3614L5.97436 10.6263L5.94315 10.6524L5.96973 10.6832L9.16681 14.3843L9.19551 14.4175L9.22592 14.3859L16.0288 7.30774Z" fill="white" stroke="white" stroke-width="0.08"/>
</svg>
