<svg width="12" height="10" viewBox="0 0 12 10" fill="none" xmlns="http://www.w3.org/2000/svg">
<path d="M0.950087 0.042984C0.430755 0.042984 0 0.472791 0 0.992135V6.79669C0 7.31602 0.430743 7.74584 0.950087 7.74584L6.76772 7.74631L9.66862 9.88322C9.78251 9.96759 9.93437 9.98072 10.0609 9.91697C10.1875 9.85323 10.2672 9.72339 10.2672 9.58137V7.74587H11.0499C11.5692 7.74587 12 7.31606 12 6.79672V0.992166C12 0.472834 11.5693 0.0430148 11.0499 0.0430148L0.950087 0.042984ZM0.950087 0.792926H11.0499C11.1667 0.792926 11.2492 0.87542 11.2492 0.992135V6.79669C11.2492 6.9134 11.1667 6.9959 11.0499 6.9959L9.89081 6.99637C9.68458 6.99683 9.51725 7.16369 9.51631 7.36993V8.83982L7.11134 7.06804C7.04712 7.02117 6.96978 6.99632 6.8901 6.99632H0.950075C0.833365 6.99632 0.750866 6.91383 0.750866 6.79711V0.992561C0.750866 0.87585 0.83336 0.793352 0.950075 0.793352L0.950087 0.792926ZM3.162 2.27973C2.95858 2.2952 2.80436 2.47003 2.81468 2.67345C2.825 2.87687 2.99607 3.03529 3.19996 3.02967H6.92628C7.02705 3.03202 7.12454 2.99358 7.19672 2.92281C7.2689 2.8525 7.30968 2.75595 7.30968 2.6547C7.30968 2.55393 7.26891 2.45738 7.19672 2.38659C7.12454 2.31629 7.02704 2.27785 6.92628 2.27973H3.19996C3.18731 2.27926 3.17465 2.27926 3.162 2.27973ZM3.19996 4.08943C2.99279 4.0899 2.82499 4.2577 2.82499 4.46487C2.82499 4.67205 2.99279 4.83984 3.19996 4.84031H8.80245C9.00963 4.83984 9.17696 4.67205 9.17696 4.46487C9.17696 4.2577 9.00963 4.0899 8.80245 4.08943H3.19996Z" fill="#1D1D1D" fill-opacity="0.8"/>
</svg>
