<svg width="16" height="4" viewBox="0 0 16 4" fill="none" xmlns="http://www.w3.org/2000/svg">
<path d="M3.66861 1.8343C3.66861 2.84571 2.84692 3.66861 1.8343 3.66861C0.822903 3.66861 0 2.84692 0 1.8343C0 0.822902 0.821688 0 1.8343 0C2.84571 0 3.66861 0.822872 3.66861 1.8343Z" fill="#1D1D1D"/>
<path d="M9.8345 1.8343C9.8345 2.84571 9.01281 3.66861 8.0002 3.66861C6.9888 3.66861 6.16589 2.84692 6.16589 1.8343C6.16589 0.822902 6.98758 0 8.0002 0C9.0116 0 9.8345 0.822872 9.8345 1.8343Z" fill="#1D1D1D"/>
<path d="M16 1.8343C16 2.84689 15.1783 3.66861 14.1657 3.66861C13.1531 3.66861 12.3314 2.84692 12.3314 1.8343C12.3314 0.821688 13.1531 0 14.1657 0C15.1783 0 16 0.821688 16 1.8343Z" fill="#1D1D1D"/>
</svg>
