<svg width="12" height="4" viewBox="0 0 12 4" fill="none" xmlns="http://www.w3.org/2000/svg">
<path d="M2.75146 2C2.75146 2.75855 2.13519 3.37572 1.37573 3.37572C0.617177 3.37572 0 2.75946 0 2C0 1.24144 0.616266 0.624268 1.37573 0.624268C2.13428 0.624268 2.75146 1.24142 2.75146 2Z" fill="#1D1D1D" fill-opacity="0.8"/>
<path d="M7.37585 2C7.37585 2.75855 6.75958 3.37572 6.00012 3.37572C5.24157 3.37572 4.62439 2.75946 4.62439 2C4.62439 1.24144 5.24066 0.624268 6.00012 0.624268C6.75867 0.624268 7.37585 1.24142 7.37585 2Z" fill="#1D1D1D" fill-opacity="0.8"/>
<path d="M12 2C12 2.75943 11.3837 3.37572 10.6243 3.37572C9.8648 3.37572 9.24854 2.75946 9.24854 2C9.24854 1.24053 9.8648 0.624268 10.6243 0.624268C11.3837 0.624268 12 1.24053 12 2Z" fill="#1D1D1D" fill-opacity="0.8"/>
</svg>
