<svg width="100" height="100" viewBox="0 0 100 100" fill="none" xmlns="http://www.w3.org/2000/svg">
<rect width="100" height="100" rx="20" fill="white"/>
<g clip-path="url(#clip0_1_10)">
<path d="M59.4568 34.3326C59.2262 35.6322 58.6184 36.7011 57.6542 37.6443C58.0525 37.7282 58.5136 37.5395 58.807 37.267C58.7022 37.791 58.5345 38.2941 58.2621 38.7762C57.8009 39.6146 57.0673 40.3062 56.2709 40.7883C55.1181 41.459 53.8186 41.6477 52.4352 41.8782C51.513 42.025 50.5488 42.1717 49.9619 42.8005C49.6685 43.1149 49.4589 43.555 49.3331 43.9952C48.2013 42.3813 47.3838 40.4949 47.5934 38.9019C47.8869 36.6592 50.1925 34.9614 52.7706 33.9344C55.4325 32.8445 58.4088 32.4672 60.3371 31C60.1066 31.7336 59.8131 32.4672 59.4149 33.117C59.0166 33.7877 58.5136 34.3955 57.9686 34.9405C58.5765 34.8986 59.0166 34.689 59.4568 34.3326Z" fill="#FF0000"/>
<path d="M32.083 50.0108H39.8382V46.4895H27.409V63.68H39.8382V59.96H32.083V56.697H38.895V53.1757H32.083V50.0108Z" fill="#010101"/>
<path d="M58.807 46.4895V50.0108H63.2086V63.68H67.9037V50.0108H72.2843V46.4895H58.807Z" fill="#010101"/>
<path d="M56.9206 46.4895H41.7456L43.7787 50.0108H46.9856V63.68H51.6597V50.0108H54.8666L56.9206 46.4895Z" fill="#010101"/>
<path d="M87.669 57.2419C89.9536 56.0053 91.1064 53.3853 90.4986 50.8491C89.8907 48.313 87.648 46.5314 85.049 46.4685C81.8421 46.4685 78.6352 46.4685 75.4283 46.4685C75.4283 52.2115 75.4283 57.9546 75.4283 63.6767C77.0003 63.6767 78.5514 63.6767 80.1024 63.6767C80.1024 61.7693 80.1024 59.841 80.1024 57.9336C80.9408 57.9336 81.7582 57.9336 82.5966 57.9336C83.7914 59.841 84.9861 61.7693 86.1808 63.6767C88.0043 63.6767 89.8488 63.6767 91.6723 63.6767C90.3518 61.5597 89.0104 59.4008 87.669 57.2419V57.2419ZM83.8123 54.4333C82.5757 54.4333 81.339 54.4333 80.1234 54.4333C80.1234 52.9661 80.1234 51.4779 80.1234 50.0107C81.4019 50.0107 82.6595 50.0107 83.9381 50.0107C85.1118 50.0946 86.0131 51.1007 85.9922 52.2744C85.9502 53.4691 84.9861 54.4123 83.8123 54.4333Z" fill="#010101"/>
<path d="M17.0338 49.7592C15.315 50.0736 13.8688 51.2264 13.1981 52.8613C12.5274 54.4752 12.716 56.3197 13.7011 57.7659C14.8749 59.4846 17.0547 60.2182 19.025 59.5475C19.025 57.8498 19.025 56.152 19.025 54.4542C20.597 54.4542 22.148 54.4542 23.699 54.4542C23.699 57.1162 23.699 59.799 23.699 62.461C21.1 63.5928 18.2494 63.9701 15.4618 63.5509C13.3867 63.2365 11.5003 62.1675 10.117 60.5746C8.7336 58.9816 8 56.9485 8 54.8525C8 52.7565 8.75456 50.7234 10.117 49.1304C11.4794 47.5374 13.3867 46.4894 15.4618 46.1541C18.2494 45.7349 21.1 46.0912 23.6781 47.223C23.0493 48.313 22.3995 49.4238 21.7707 50.5138C20.3245 49.7382 18.6686 49.4658 17.0338 49.7592V49.7592Z" fill="#010101"/>
</g>
<defs>
<clipPath id="clip0_1_10">
<rect width="83.6723" height="32.7171" fill="white" transform="translate(8 31)"/>
</clipPath>
</defs>
</svg>
