<svg width="14" height="14" viewBox="0 0 14 14" fill="none" xmlns="http://www.w3.org/2000/svg">
<path d="M5.69403 1.82676C5.62899 3.5359 5.42468 4.53655 4.42268 6.01431C4.25211 5.84997 4.02201 5.74649 3.76984 5.74649H0.94246C0.428285 5.74649 0 6.17134 0 6.68139V12.2908C0 12.8008 0.428285 13.2256 0.94246 13.2256H3.76984C4.0343 13.2256 4.27481 13.1124 4.44724 12.9335C4.56995 13.0303 4.68469 13.1185 4.81539 13.1964C5.09334 13.3614 5.41731 13.4606 5.83149 13.5032C6.65982 13.5884 7.96365 13.5245 10.9954 13.5373C11.1034 13.5373 11.2114 13.4983 11.2948 13.4302C11.8949 12.9451 12.1894 12.4454 12.3256 11.9158C12.3778 11.8878 12.425 11.8495 12.4631 11.8038C12.9177 11.2402 13.1012 10.5889 13.0227 10.0023C13.0478 9.9822 13.0711 9.95907 13.0914 9.93412C13.6191 9.28042 13.786 8.50621 13.597 7.85491C13.9062 7.45685 14.04 6.98879 13.9897 6.55482C13.9283 6.02224 13.5847 5.54262 13.0668 5.31803C13.0079 5.29246 12.9441 5.27907 12.8803 5.27907H9.01229C9.21907 3.74588 9.06138 2.33992 8.51653 1.38851C8.2079 0.849245 7.73667 0.533344 7.26482 0.463352C6.41685 0.359881 5.77504 0.950884 5.69405 1.82674L5.69403 1.82676ZM7.69676 1.8511C8.12566 2.60097 8.32691 4.07569 8.02073 5.65893C7.96919 5.92796 8.20603 6.21342 8.48214 6.21402H12.7429C12.919 6.31141 13.0288 6.46113 13.0521 6.66199C13.0736 6.85006 12.992 7.0771 12.8018 7.30473H11.1524C10.9033 7.30473 10.6745 7.52507 10.6745 7.77218C10.6745 8.01929 10.9033 8.24328 11.1524 8.23963H12.7134C12.749 8.50439 12.6833 8.83672 12.468 9.17452H11.1524C10.9033 9.17452 10.6745 9.39486 10.6745 9.64197C10.6745 9.88908 10.9033 10.1131 11.1524 10.1094H12.0851C12.1207 10.3742 12.055 10.7065 11.8397 11.0443H11.1524C10.9033 11.0443 10.6745 11.2647 10.6745 11.5118C10.6745 11.7589 10.9033 11.9829 11.1524 11.9792H11.3144C11.2181 12.1855 11.0647 12.3681 10.7941 12.6025C7.93421 12.594 6.57079 12.6396 5.92473 12.5733C5.59217 12.5392 5.46087 12.4905 5.29642 12.3931C5.1596 12.3122 4.97123 12.1569 4.71229 11.95V7.21226C6.18611 5.25724 6.55794 3.89026 6.63648 1.87073C6.78374 1.06609 7.48691 1.39964 7.69674 1.85126L7.69676 1.8511ZM0.94246 6.68139H3.76984C3.75941 8.53841 3.76984 10.4191 3.76984 12.2908H0.94246V6.68139Z" fill="#1D1D1D" fill-opacity="0.8"/>
</svg>
