<svg width="20" height="25" viewBox="0 0 20 25" fill="none" xmlns="http://www.w3.org/2000/svg">
<path d="M19.0637 16.4416C18.7454 16.1639 18.5629 15.7633 18.5629 15.3408V8.56322C18.5629 6.27228 17.6723 4.1222 16.0547 2.50848C14.3985 0.852263 12.1938 -0.0392928 9.8512 0.00132941C5.21188 0.079677 1.43706 4.0011 1.43706 8.74171V15.3408C1.43706 15.7633 1.25458 16.1639 0.936215 16.4416C0.341151 16.9603 0 17.7101 0 18.4985C0 19.6986 0.975899 20.6744 2.1759 20.6744H7.21306V21.331C7.21306 22.8672 8.46268 24.1179 10 24.1179C11.5362 24.1179 12.7869 22.8683 12.7869 21.331V20.6744H17.8241C19.0241 20.6744 20 19.6985 20 18.4985C20 17.7101 19.6588 16.9603 19.0638 16.4416H19.0637ZM11.5174 21.332C11.5174 22.1691 10.837 22.8494 9.99997 22.8494C9.16293 22.8494 8.48258 22.1691 8.48258 21.332V20.6755H11.5173L11.5174 21.332ZM17.824 19.4071H2.17603C1.67617 19.4071 1.26858 19.0004 1.26858 18.4996C1.26858 18.0771 1.45106 17.6764 1.76943 17.3988C2.36449 16.8801 2.70564 16.1303 2.70564 15.3419V8.74176C2.70564 4.68842 5.92089 1.33633 9.87293 1.26879C9.91558 1.2678 9.95822 1.2678 10.0009 1.2678C11.9497 1.2678 13.7764 2.02353 15.1579 3.40504C16.5354 4.77962 17.2941 6.6114 17.2941 8.56203V15.3406C17.2941 16.1301 17.6353 16.8798 18.2303 17.3975C18.5487 17.6752 18.7312 18.0759 18.7312 18.4984C18.7312 18.9992 18.3235 19.4068 17.8237 19.4068L17.824 19.4071Z" fill="white"/>
</svg>
