<svg width="16" height="13" viewBox="0 0 16 13" fill="none" xmlns="http://www.w3.org/2000/svg">
<path fill-rule="evenodd" clip-rule="evenodd" d="M15.1842 1.24155C15.5523 1.24155 15.8629 1.55214 15.8629 1.92027C15.8629 2.28841 15.5523 2.59899 15.1842 2.59899H13.9237C13.6912 2.59899 13.4776 2.71565 13.3617 2.90958C13.0322 3.47163 12.4118 3.84055 11.7133 3.84055C11.0149 3.84055 10.4142 3.47241 10.065 2.90958C9.94838 2.71566 9.71582 2.59899 9.50297 2.59899H0.678836C0.310699 2.59899 0.000116352 2.28841 0.000116352 1.92027C0.000116352 1.55214 0.310699 1.24155 0.678836 1.24155H9.52198C9.75453 1.24155 9.96815 1.1249 10.084 0.930971C10.4135 0.368913 11.0339 0 11.7324 0C12.4308 0 13.0315 0.368138 13.3807 0.930971C13.4973 1.12489 13.7299 1.24155 13.9427 1.24155H15.1842ZM11.7322 9.07553C11.0338 9.07553 10.4331 9.44367 10.0839 10.0065C9.96726 10.2004 9.73471 10.3171 9.52186 10.3171H0.67872C0.310582 10.3171 0 10.6277 0 10.9958C0 11.3639 0.310582 11.6745 0.67872 11.6745H9.52186C9.75441 11.6745 9.96803 11.7912 10.0839 11.9851C10.4134 12.5472 11.0338 12.9161 11.7322 12.9161C12.4307 12.9161 13.0313 12.5479 13.3806 11.9851C13.4972 11.7912 13.7298 11.6745 13.9426 11.6745H15.2031C15.5712 11.6745 15.8818 11.3639 15.8818 10.9958C15.8818 10.6277 15.5712 10.3171 15.2031 10.3171H13.9426C13.7101 10.3171 13.4964 10.2004 13.3806 10.0065C13.0321 9.44445 12.4307 9.07553 11.7322 9.07553ZM2.67637 5.46916C3.02558 4.90633 3.62627 4.53819 4.32469 4.53819L4.32471 4.53819C5.02313 4.53819 5.62382 4.90635 5.97378 5.46841C6.08967 5.66233 6.30329 5.77899 6.53584 5.77899L15.2031 5.77975C15.5712 5.77975 15.8818 6.09033 15.8818 6.45847C15.8818 6.8266 15.5712 7.13719 15.2031 7.13719H6.53507C6.32222 7.13719 6.08966 7.25385 5.97301 7.44777C5.6238 8.0106 5.02311 8.37874 4.32469 8.37874C3.62627 8.37874 3.00588 8.00983 2.67637 7.44777C2.56048 7.25384 2.34686 7.13719 2.11431 7.13719H0.679612C0.311474 7.13719 0.000892032 6.8266 0.000892032 6.45847C0.000892032 6.09033 0.311474 5.77975 0.679612 5.77975H2.11431C2.32716 5.77975 2.55971 5.66308 2.67637 5.46916Z" fill="#9A9AB0"/>
</svg>
