<svg width="12" height="12" viewBox="0 0 12 12" fill="none"
    xmlns="http://www.w3.org/2000/svg">
    <path d="M11.6 9.62101H10.344C10.1545 8.91996 9.522 8.43365 8.80007 8.43365C8.07813 8.43365 7.44557 8.91995 7.25613 9.62101H0.400192C0.179187 9.62101 0.000191986 9.80104 0.000191986 10.0233C0.000191986 10.2456 0.179187 10.4257 0.400192 10.4257H7.25613C7.44563 11.1267 8.07813 11.613 8.80007 11.613C9.522 11.613 10.1546 11.1267 10.344 10.4257H11.6C11.821 10.4257 12 10.2456 12 10.0233C12 9.80104 11.821 9.62101 11.6 9.62101ZM8.8 10.828C8.47651 10.828 8.1845 10.6318 8.06101 10.3311C7.93701 10.0304 8.00551 9.68438 8.23451 9.45455C8.46301 9.22421 8.80702 9.15532 9.10601 9.28003C9.40501 9.40425 9.60001 9.69795 9.60001 10.0233C9.60001 10.2365 9.51551 10.4412 9.36552 10.5921C9.21552 10.743 9.01202 10.828 8.80001 10.828L8.8 10.828ZM0.4 2.37921H7.25594C7.44544 3.08026 8.07794 3.56657 8.79987 3.56657C9.52181 3.56657 10.1544 3.08027 10.3438 2.37921H11.5998C11.8208 2.37921 11.9998 2.19918 11.9998 1.97689C11.9998 1.7546 11.8208 1.57457 11.5998 1.57457H10.3438C10.1543 0.873521 9.52181 0.387207 8.79987 0.387207C8.07794 0.387207 7.44538 0.873508 7.25594 1.57457H0.4C0.178995 1.57457 0 1.7546 0 1.97689C0 2.19918 0.178995 2.37921 0.4 2.37921ZM8.8 1.17224C9.1235 1.17224 9.4155 1.36837 9.539 1.66911C9.663 1.96985 9.59449 2.31584 9.36549 2.54568C9.13699 2.77601 8.79299 2.8449 8.49399 2.72019C8.195 2.59597 7.99999 2.30227 7.99999 1.9769C7.99999 1.53234 8.35799 1.17226 8.79999 1.17226L8.8 1.17224ZM11.6 5.59779H4.74406C4.55456 4.89674 3.92206 4.41043 3.20013 4.41043C2.4782 4.41043 1.84563 4.89673 1.65619 5.59779H0.400192C0.179187 5.59779 0.000191986 5.77782 0.000191986 6.00011C0.000191986 6.2224 0.179187 6.40243 0.400192 6.40243H1.65619C1.8457 7.10348 2.4782 7.58979 3.20013 7.58979C3.92206 7.58979 4.55462 7.10349 4.74406 6.40243H11.6C11.821 6.40243 12 6.2224 12 6.00011C12 5.77782 11.821 5.59779 11.6 5.59779ZM3.2 6.80475C2.87651 6.80475 2.5845 6.60863 2.461 6.30788C2.337 6.00715 2.40551 5.66116 2.63451 5.43132C2.86301 5.20099 3.20701 5.1321 3.50601 5.25681C3.805 5.38103 4.00001 5.67473 4.00001 6.0001C4.00001 6.21332 3.91551 6.41801 3.76552 6.56888C3.61552 6.71976 3.41202 6.80474 3.20001 6.80474L3.2 6.80475Z" fill="white"/>
</svg>
