<svg width="100" height="100" viewBox="0 0 100 100" fill="none" xmlns="http://www.w3.org/2000/svg">
<rect width="100" height="100" rx="20" fill="white"/>
<rect width="73" height="68" transform="translate(16 16)" fill="white"/>
<path d="M39.9982 45.4645V43.3848C39.1219 43.2705 38.2369 43.2078 37.3498 43.1974C28.7615 43.1823 21.1581 47.7676 18.5791 54.5166C16 61.2657 19.0443 68.6126 26.0937 72.6536C23.5086 70.3743 21.7796 67.5273 21.1153 64.4562C20.4509 61.3851 20.8797 58.2212 22.3498 55.3465C23.8199 52.4717 26.2685 50.009 29.4 48.2555C32.5316 46.502 36.2122 45.5328 39.9976 45.4648L39.9982 45.4645Z" fill="#25F4EE"/>
<path d="M40.4743 69.0228C45.2761 69.0173 49.223 65.9008 49.4333 61.9485V26.6795H57.2538C57.0942 25.9425 57.0181 25.1949 57.0263 24.4463L46.3294 24.4463V59.6813C46.1515 63.6537 42.1951 66.8002 37.3704 66.8066C35.9286 66.7965 34.5104 66.5044 33.2324 65.9543C34.0607 66.8997 35.1484 67.6705 36.4069 68.2037C37.6654 68.737 39.0591 69.0176 40.4743 69.0228V69.0228ZM71.8613 38.6458V36.6855C68.9831 36.6864 66.1686 35.9867 63.7715 34.6742C65.8729 36.6869 68.7126 38.0811 71.8613 38.6458V38.6458Z" fill="#25F4EE"/>
<path d="M63.7715 34.6742C61.4099 32.4588 60.1081 29.6107 60.1093 26.6622H57.2538C57.6226 28.2924 58.3907 29.8436 59.5113 31.2211C60.6319 32.5986 62.0814 33.7735 63.7715 34.6742V34.6742ZM37.3498 52.0104C35.3471 52.0188 33.4053 52.5785 31.8331 53.6006C30.2609 54.6227 29.1485 56.0485 28.6728 57.6512C28.1972 59.254 28.3855 60.9418 29.2079 62.4463C30.0302 63.9507 31.4394 65.1855 33.2115 65.9543C32.2426 64.8522 31.6624 63.5509 31.535 62.1941C31.4076 60.8374 31.7379 59.478 32.4894 58.2662C33.2409 57.0544 34.3844 56.0373 35.7935 55.3274C37.2026 54.6175 38.8226 54.2423 40.4743 54.2433C41.3722 54.253 42.2639 54.3682 43.1224 54.5853V45.6179C42.2457 45.5097 41.3607 45.4527 40.4743 45.4475H39.9982V52.266C39.1351 52.0753 38.243 51.9892 37.3498 52.0104V52.0104Z" fill="#FE2C55"/>
<path d="M71.8613 38.6458V45.4645C66.5329 45.456 61.3429 44.0664 57.0263 41.4926V59.4085C57.0034 68.3482 48.2006 75.5856 37.3498 75.5856C33.3199 75.5916 29.387 74.5671 26.0937 72.6536C28.7792 75.0334 32.2723 76.6917 36.118 77.4125C39.9637 78.1334 43.9838 77.8834 47.6547 76.6951C51.3255 75.5068 54.4769 73.4352 56.6984 70.7503C58.9198 68.0654 60.1084 64.8915 60.1093 61.6421V43.777C64.4403 46.3338 69.6368 47.7053 74.9649 47.6977V38.918C73.9217 38.9154 72.8817 38.8242 71.8613 38.6458V38.6458Z" fill="#FE2C55"/>
<path d="M57.0263 59.4085V41.4926C61.356 44.0518 66.5533 45.4234 71.8819 45.4133V38.5949C68.7339 38.0471 65.8874 36.6711 63.7715 34.6742C62.0814 33.7735 60.6319 32.5986 59.5113 31.2211C58.3907 29.8436 57.6226 28.2924 57.2538 26.6622H49.4332V61.9489C49.3571 63.4849 48.7021 64.9632 47.5592 66.1783C46.4164 67.3935 44.8425 68.2852 43.0563 68.7294C41.27 69.1737 39.3602 69.1485 37.5921 68.6573C35.824 68.1662 34.2856 67.2335 33.1906 65.9888C31.4182 65.2201 30.0087 63.9853 29.1861 62.4807C28.3635 60.9762 28.1751 59.2882 28.6508 57.6853C29.1265 56.0823 30.239 54.6564 31.8115 53.6343C33.3839 52.6122 35.326 52.0526 37.3289 52.0444C38.2271 52.051 39.1194 52.1659 39.9773 52.3854V45.5667C36.1715 45.6199 32.4667 46.5842 29.3146 48.3421C26.1626 50.1 23.6994 52.5755 22.2255 55.4668C20.7515 58.3581 20.3305 61.5403 21.0138 64.6253C21.697 67.7103 23.455 70.5649 26.0733 72.841C29.399 74.6915 33.3375 75.6501 37.3498 75.5856C48.2006 75.5856 57.0034 68.3482 57.0263 59.4085V59.4085Z" fill="black"/>
</svg>
